<?xml version="1.0" standalone="no"?>
<!DOCTYPE svg PUBLIC "-//W3C//DTD SVG 20010904//EN"
 "http://www.w3.org/TR/2001/REC-SVG-20010904/DTD/svg10.dtd">
<svg version="1.0" xmlns="http://www.w3.org/2000/svg"
 width="640.000000pt" height="640.000000pt" viewBox="0 0 640.000000 640.000000"
 preserveAspectRatio="xMidYMid meet">
<metadata>
Created by potrace 1.14, written by Peter Selinger 2001-2017
</metadata>
<g transform="translate(0.000000,640.000000) scale(0.100000,-0.100000)"
fill="#000000" stroke="none">
<path d="M1641 5779 c-9 -4 -39 -32 -65 -62 -26 -30 -64 -73 -84 -94 -32 -32
-167 -180 -252 -273 -14 -15 -70 -76 -125 -136 -55 -60 -118 -128 -140 -152
-22 -25 -49 -54 -60 -66 -11 -12 -69 -75 -130 -141 -60 -66 -114 -125 -120
-131 -8 -9 -98 -106 -208 -228 -16 -17 -50 -54 -75 -81 -26 -28 -92 -100 -147
-160 -55 -60 -121 -132 -147 -160 -26 -27 -56 -61 -68 -74 l-20 -25 30 -30
c132 -134 228 -241 223 -249 -3 -6 -2 -7 4 -4 14 9 86 -70 77 -84 -4 -8 -3 -9
5 -5 7 5 29 -11 56 -41 44 -48 220 -230 317 -329 33 -34 48 -56 43 -65 -5 -8
-4 -10 3 -5 11 7 66 -47 282 -275 30 -32 79 -83 108 -114 29 -30 51 -59 47
-64 -3 -5 0 -13 6 -17 8 -4 9 -3 5 4 -13 22 5 12 35 -17 29 -30 39 -48 17 -35
-7 4 -8 3 -4 -5 4 -6 11 -9 15 -6 12 7 193 -184 186 -195 -3 -6 1 -7 9 -4 16
6 40 -29 28 -41 -4 -3 0 -5 8 -3 8 2 14 -3 12 -10 -1 -8 2 -11 7 -8 13 8 153
-142 145 -156 -4 -7 -3 -8 4 -4 14 8 84 -63 75 -77 -3 -6 -1 -7 4 -4 13 8 214
-203 206 -216 -3 -6 -2 -7 4 -4 8 5 152 -138 375 -376 37 -39 64 -75 61 -81
-3 -5 -1 -6 4 -3 14 9 37 -19 27 -34 -5 -8 -3 -9 5 -4 8 5 42 -23 98 -81 47
-49 125 -131 174 -182 49 -51 87 -97 84 -102 -3 -6 0 -7 8 -4 9 3 20 -7 30
-28 9 -18 17 -28 17 -23 0 6 43 -35 96 -90 194 -203 184 -195 223 -196 20 -1
40 -1 45 0 5 1 13 -4 17 -11 7 -10 9 -10 9 0 0 6 10 12 23 12 12 0 34 11 47
25 14 14 34 34 44 45 10 11 24 17 29 13 6 -3 7 -1 4 4 -9 14 178 207 191 199
6 -3 14 -2 17 4 4 6 3 10 -2 9 -23 -4 -16 7 50 75 40 40 118 122 174 181 57
58 107 104 113 100 5 -3 7 0 5 8 -3 7 11 29 32 49 21 19 67 68 103 107 35 39
70 69 77 67 7 -3 10 1 7 8 -6 16 21 40 35 31 6 -3 9 0 6 7 -6 14 269 305 285
301 5 -2 6 5 3 14 -5 13 -2 15 11 10 10 -4 15 -3 11 3 -3 5 16 31 42 58 26 27
113 118 193 202 80 84 175 184 212 222 37 39 71 67 77 64 7 -4 8 -1 5 8 -3 9
3 20 15 28 12 7 21 17 21 21 0 12 62 63 73 59 5 -1 6 2 2 8 -3 5 25 41 62 79
37 38 121 126 187 195 65 69 123 123 129 119 6 -3 7 -1 3 5 -4 7 -2 12 5 12 7
0 10 2 8 5 -8 7 170 190 182 187 6 -1 8 2 5 6 -3 5 34 50 82 100 48 49 143
149 211 220 69 72 129 128 134 125 6 -3 7 -2 4 3 -3 6 12 29 34 53 35 38 42
41 57 29 15 -12 16 -11 3 4 -11 15 -8 22 25 56 22 22 61 62 87 90 l48 51 -23
24 c-13 13 -54 59 -93 102 -38 42 -83 92 -100 109 -16 17 -55 58 -85 91 -30
33 -96 105 -147 160 -50 55 -104 114 -120 131 -15 17 -68 75 -118 129 -49 54
-101 110 -113 124 -13 14 -42 46 -65 71 -23 25 -89 96 -147 159 -58 63 -112
122 -120 131 -8 9 -58 63 -110 120 -52 57 -102 111 -110 120 -8 9 -58 63 -110
120 -52 57 -114 124 -136 149 l-42 44 -1552 1 c-853 1 -1559 -2 -1569 -5z"/>
<path d="M6199 3673 c-13 -16 -12 -17 4 -4 9 7 17 15 17 17 0 8 -8 3 -21 -13z"/>
<path d="M6076 3598 c3 -5 10 -6 15 -3 13 9 11 12 -6 12 -8 0 -12 -4 -9 -9z"/>
<path d="M350 3501 c0 -6 4 -13 10 -16 6 -3 7 1 4 9 -7 18 -14 21 -14 7z"/>
<path d="M5996 3493 c-6 -14 -5 -15 5 -6 7 7 10 15 7 18 -3 3 -9 -2 -12 -12z"/>
<path d="M667 3239 c7 -7 15 -10 18 -7 3 3 -2 9 -12 12 -14 6 -15 5 -6 -5z"/>
<path d="M5707 3199 c7 -7 15 -10 18 -7 3 3 -2 9 -12 12 -14 6 -15 5 -6 -5z"/>
<path d="M5385 2900 c-3 -6 1 -7 9 -4 18 7 21 14 7 14 -6 0 -13 -4 -16 -10z"/>
<path d="M1126 2718 c3 -5 10 -6 15 -3 13 9 11 12 -6 12 -8 0 -12 -4 -9 -9z"/>
<path d="M1550 2286 c0 -2 7 -7 16 -10 8 -3 12 -2 9 4 -6 10 -25 14 -25 6z"/>
<path d="M4816 2238 c3 -5 10 -6 15 -3 13 9 11 12 -6 12 -8 0 -12 -4 -9 -9z"/>
<path d="M3650 1106 c0 -2 7 -7 16 -10 8 -3 12 -2 9 4 -6 10 -25 14 -25 6z"/>
<path d="M2736 1087 c3 -10 9 -15 12 -12 3 3 0 11 -7 18 -10 9 -11 8 -5 -6z"/>
<path d="M3675 1049 c-4 -6 -5 -12 -2 -15 2 -3 7 2 10 11 7 17 1 20 -8 4z"/>
<path d="M2875 911 c-3 -5 -2 -12 3 -15 5 -3 9 1 9 9 0 17 -3 19 -12 6z"/>
</g>
</svg>
